<?xml version="1.0" encoding="UTF-8" standalone="no"?><!DOCTYPE svg PUBLIC "-//W3C//DTD SVG 1.1//EN" "http://www.w3.org/Graphics/SVG/1.1/DTD/svg11.dtd"><!-- Generated by graphviz version 2.40.1 (20161225.0304)
 --><!-- Title: prog Pages: 1 --><svg xmlns="http://www.w3.org/2000/svg" xmlns:xlink="http://www.w3.org/1999/xlink" width="1817pt" height="908pt" viewBox="0.00 0.00 1816.82 908.00">
<g id="graph0" class="graph" transform="scale(1 1) rotate(0) translate(4 904)">
<title>prog</title>
<polygon fill="#ffffff" stroke="transparent" points="-4,4 -4,-904 1812.8164,-904 1812.8164,4 -4,4"/>
<!-- n100 -->
<g id="node1" class="node">
<title>n100</title>
<ellipse fill="none" stroke="#000000" cx="640.8164" cy="-882" rx="28.9754" ry="18"/>
<text text-anchor="middle" x="640.8164" y="-877.8" font-family="Times,serif" font-size="14.00" fill="#000000">prog</text>
</g>
<!-- n99 -->
<g id="node2" class="node">
<title>n99</title>
<ellipse fill="none" stroke="#000000" cx="640.8164" cy="-810" rx="36.592" ry="18"/>
<text text-anchor="middle" x="640.8164" y="-805.8" font-family="Times,serif" font-size="14.00" fill="#000000">stmtsF</text>
</g>
<!-- n100&#45;&#45;n99 -->
<g id="edge100" class="edge">
<title>n100--n99</title>
<path fill="none" stroke="#000000" d="M640.8164,-863.8314C640.8164,-853 640.8164,-839.2876 640.8164,-828.4133"/>
</g>
<!-- n33 -->
<g id="node3" class="node">
<title>n33</title>
<ellipse fill="none" stroke="#000000" cx="590.8164" cy="-738" rx="36.592" ry="18"/>
<text text-anchor="middle" x="590.8164" y="-733.8" font-family="Times,serif" font-size="14.00" fill="#000000">stmtsF</text>
</g>
<!-- n99&#45;&#45;n33 -->
<g id="edge98" class="edge">
<title>n99--n33</title>
<path fill="none" stroke="#000000" d="M628.9671,-792.937C621.1122,-781.626 610.836,-766.8282 602.9279,-755.4407"/>
</g>
<!-- n98 -->
<g id="node37" class="node">
<title>n98</title>
<ellipse fill="none" stroke="#000000" cx="861.8164" cy="-738" rx="30.1958" ry="18"/>
<text text-anchor="middle" x="861.8164" y="-733.8" font-family="Times,serif" font-size="14.00" fill="#000000">main</text>
</g>
<!-- n99&#45;&#45;n98 -->
<g id="edge99" class="edge">
<title>n99--n98</title>
<path fill="none" stroke="#000000" d="M671.5455,-799.9887C715.0728,-785.8079 793.9604,-760.1069 835.1517,-746.6871"/>
</g>
<!-- n19 -->
<g id="node4" class="node">
<title>n19</title>
<ellipse fill="none" stroke="#000000" cx="336.8164" cy="-666" rx="36.592" ry="18"/>
<text text-anchor="middle" x="336.8164" y="-661.8" font-family="Times,serif" font-size="14.00" fill="#000000">stmtsF</text>
</g>
<!-- n33&#45;&#45;n19 -->
<g id="edge32" class="edge">
<title>n33--n19</title>
<path fill="none" stroke="#000000" d="M558.9043,-728.9541C510.1382,-715.1306 417.6051,-688.9007 368.7977,-675.0656"/>
</g>
<!-- n31 -->
<g id="node24" class="node">
<title>n31</title>
<ellipse fill="none" stroke="#000000" cx="590.8164" cy="-666" rx="32.4788" ry="18"/>
<text text-anchor="middle" x="590.8164" y="-661.8" font-family="Times,serif" font-size="14.00" fill="#000000">struct</text>
</g>
<!-- n33&#45;&#45;n31 -->
<g id="edge33" class="edge">
<title>n33--n31</title>
<path fill="none" stroke="#000000" d="M590.8164,-719.8314C590.8164,-709 590.8164,-695.2876 590.8164,-684.4133"/>
</g>
<!-- n5 -->
<g id="node5" class="node">
<title>n5</title>
<ellipse fill="none" stroke="#000000" cx="160.8164" cy="-594" rx="36.592" ry="18"/>
<text text-anchor="middle" x="160.8164" y="-589.8" font-family="Times,serif" font-size="14.00" fill="#000000">stmtsF</text>
</g>
<!-- n19&#45;&#45;n5 -->
<g id="edge18" class="edge">
<title>n19--n5</title>
<path fill="none" stroke="#000000" d="M308.5389,-654.432C275.7926,-641.0357 222.1557,-619.0934 189.3154,-605.6587"/>
</g>
<!-- n18 -->
<g id="node11" class="node">
<title>n18</title>
<ellipse fill="none" stroke="#000000" cx="336.8164" cy="-594" rx="28.3913" ry="18"/>
<text text-anchor="middle" x="336.8164" y="-589.8" font-family="Times,serif" font-size="14.00" fill="#000000">func</text>
</g>
<!-- n19&#45;&#45;n18 -->
<g id="edge19" class="edge">
<title>n19--n18</title>
<path fill="none" stroke="#000000" d="M336.8164,-647.8314C336.8164,-637 336.8164,-623.2876 336.8164,-612.4133"/>
</g>
<!-- n0 -->
<g id="node6" class="node">
<title>n0</title>
<ellipse fill="none" stroke="#000000" cx="45.8164" cy="-522" rx="39.4254" ry="18"/>
<text text-anchor="middle" x="45.8164" y="-517.8" font-family="Times,serif" font-size="14.00" fill="#000000">include</text>
</g>
<!-- n5&#45;&#45;n0 -->
<g id="edge4" class="edge">
<title>n5--n0</title>
<path fill="none" stroke="#000000" d="M138.0961,-579.7751C118.1968,-567.3165 89.3957,-549.2845 69.279,-536.6896"/>
</g>
<!-- n4 -->
<g id="node8" class="node">
<title>n4</title>
<ellipse fill="none" stroke="#000000" cx="160.8164" cy="-522" rx="27" ry="18"/>
<text text-anchor="middle" x="160.8164" y="-517.8" font-family="Times,serif" font-size="14.00" fill="#000000">abc</text>
</g>
<!-- n5&#45;&#45;n4 -->
<g id="edge5" class="edge">
<title>n5--n4</title>
<path fill="none" stroke="#000000" d="M160.8164,-575.8314C160.8164,-565 160.8164,-551.2876 160.8164,-540.4133"/>
</g>
<!-- n1 -->
<g id="node7" class="node">
<title>n1</title>
<ellipse fill="none" stroke="#000000" cx="29.8164" cy="-450" rx="29.6339" ry="18"/>
<text text-anchor="middle" x="29.8164" y="-445.8" font-family="Times,serif" font-size="14.00" fill="#000000">stdio</text>
</g>
<!-- n0&#45;&#45;n1 -->
<g id="edge1" class="edge">
<title>n0--n1</title>
<path fill="none" stroke="#000000" d="M41.7789,-503.8314C39.3349,-492.8334 36.2308,-478.865 33.7971,-467.9134"/>
</g>
<!-- n2 -->
<g id="node9" class="node">
<title>n2</title>
<ellipse fill="none" stroke="#000000" cx="104.8164" cy="-450" rx="27" ry="18"/>
<text text-anchor="middle" x="104.8164" y="-445.8" font-family="Times,serif" font-size="14.00" fill="#000000">int</text>
</g>
<!-- n4&#45;&#45;n2 -->
<g id="edge2" class="edge">
<title>n4--n2</title>
<path fill="none" stroke="#000000" d="M148.1091,-505.6621C138.9444,-493.8788 126.6265,-478.0416 117.4733,-466.2733"/>
</g>
<!-- n3 -->
<g id="node10" class="node">
<title>n3</title>
<ellipse fill="none" stroke="#000000" cx="176.8164" cy="-450" rx="27" ry="18"/>
<text text-anchor="middle" x="176.8164" y="-445.8" font-family="Times,serif" font-size="14.00" fill="#000000">45</text>
</g>
<!-- n4&#45;&#45;n3 -->
<g id="edge3" class="edge">
<title>n4--n3</title>
<path fill="none" stroke="#000000" d="M164.8538,-503.8314C167.2978,-492.8334 170.4019,-478.865 172.8356,-467.9134"/>
</g>
<!-- n6 -->
<g id="node12" class="node">
<title>n6</title>
<ellipse fill="none" stroke="#000000" cx="264.8164" cy="-522" rx="27" ry="18"/>
<text text-anchor="middle" x="264.8164" y="-517.8" font-family="Times,serif" font-size="14.00" fill="#000000">int</text>
</g>
<!-- n18&#45;&#45;n6 -->
<g id="edge15" class="edge">
<title>n18--n6</title>
<path fill="none" stroke="#000000" d="M321.547,-578.7307C309.3284,-566.512 292.2765,-549.4602 280.0637,-537.2473"/>
</g>
<!-- n13 -->
<g id="node13" class="node">
<title>n13</title>
<ellipse fill="none" stroke="#000000" cx="336.8164" cy="-522" rx="27.2447" ry="18"/>
<text text-anchor="middle" x="336.8164" y="-517.8" font-family="Times,serif" font-size="14.00" fill="#000000">args</text>
</g>
<!-- n18&#45;&#45;n13 -->
<g id="edge16" class="edge">
<title>n18--n13</title>
<path fill="none" stroke="#000000" d="M336.8164,-575.8314C336.8164,-565 336.8164,-551.2876 336.8164,-540.4133"/>
</g>
<!-- n17 -->
<g id="node20" class="node">
<title>n17</title>
<ellipse fill="none" stroke="#000000" cx="447.8164" cy="-522" rx="34.1871" ry="18"/>
<text text-anchor="middle" x="447.8164" y="-517.8" font-family="Times,serif" font-size="14.00" fill="#000000">return</text>
</g>
<!-- n18&#45;&#45;n17 -->
<g id="edge17" class="edge">
<title>n18--n17</title>
<path fill="none" stroke="#000000" d="M356.6609,-581.1278C376.2415,-568.4269 406.0901,-549.0657 426.2478,-535.9904"/>
</g>
<!-- n8 -->
<g id="node14" class="node">
<title>n8</title>
<ellipse fill="none" stroke="#000000" cx="248.8164" cy="-450" rx="27" ry="18"/>
<text text-anchor="middle" x="248.8164" y="-445.8" font-family="Times,serif" font-size="14.00" fill="#000000">arg</text>
</g>
<!-- n13&#45;&#45;n8 -->
<g id="edge10" class="edge">
<title>n13--n8</title>
<path fill="none" stroke="#000000" d="M319.4304,-507.7751C304.0028,-495.1525 281.5829,-476.809 266.1662,-464.1953"/>
</g>
<!-- n11 -->
<g id="node17" class="node">
<title>n11</title>
<ellipse fill="none" stroke="#000000" cx="336.8164" cy="-450" rx="27" ry="18"/>
<text text-anchor="middle" x="336.8164" y="-445.8" font-family="Times,serif" font-size="14.00" fill="#000000">arg</text>
</g>
<!-- n13&#45;&#45;n11 -->
<g id="edge11" class="edge">
<title>n13--n11</title>
<path fill="none" stroke="#000000" d="M336.8164,-503.8314C336.8164,-493 336.8164,-479.2876 336.8164,-468.4133"/>
</g>
<!-- n7 -->
<g id="node15" class="node">
<title>n7</title>
<ellipse fill="none" stroke="#000000" cx="169.8164" cy="-378" rx="27" ry="18"/>
<text text-anchor="middle" x="169.8164" y="-373.8" font-family="Times,serif" font-size="14.00" fill="#000000">int</text>
</g>
<!-- n8&#45;&#45;n7 -->
<g id="edge6" class="edge">
<title>n8--n7</title>
<path fill="none" stroke="#000000" d="M232.8295,-435.4297C219.1234,-422.938 199.4787,-405.034 185.7794,-392.5486"/>
</g>
<!-- n9 -->
<g id="node16" class="node">
<title>n9</title>
<ellipse fill="none" stroke="#000000" cx="241.8164" cy="-378" rx="27" ry="18"/>
<text text-anchor="middle" x="241.8164" y="-373.8" font-family="Times,serif" font-size="14.00" fill="#000000">v</text>
</g>
<!-- n8&#45;&#45;n9 -->
<g id="edge7" class="edge">
<title>n8--n9</title>
<path fill="none" stroke="#000000" d="M247.05,-431.8314C245.9969,-421 244.6638,-407.2876 243.6065,-396.4133"/>
</g>
<!-- n10 -->
<g id="node18" class="node">
<title>n10</title>
<ellipse fill="none" stroke="#000000" cx="313.8164" cy="-378" rx="27" ry="18"/>
<text text-anchor="middle" x="313.8164" y="-373.8" font-family="Times,serif" font-size="14.00" fill="#000000">int</text>
</g>
<!-- n11&#45;&#45;n10 -->
<g id="edge8" class="edge">
<title>n11--n10</title>
<path fill="none" stroke="#000000" d="M331.131,-432.2022C327.5925,-421.1252 323.0573,-406.928 319.5161,-395.8425"/>
</g>
<!-- n12 -->
<g id="node19" class="node">
<title>n12</title>
<ellipse fill="none" stroke="#000000" cx="385.8164" cy="-378" rx="27" ry="18"/>
<text text-anchor="middle" x="385.8164" y="-373.8" font-family="Times,serif" font-size="14.00" fill="#000000">c</text>
</g>
<!-- n11&#45;&#45;n12 -->
<g id="edge9" class="edge">
<title>n11--n12</title>
<path fill="none" stroke="#000000" d="M348.1811,-433.3008C356.0972,-421.669 366.6107,-406.2206 374.5133,-394.6087"/>
</g>
<!-- n16 -->
<g id="node21" class="node">
<title>n16</title>
<ellipse fill="none" stroke="#000000" cx="454.8164" cy="-450" rx="27" ry="18"/>
<text text-anchor="middle" x="454.8164" y="-445.8" font-family="Times,serif" font-size="14.00" fill="#000000">*</text>
</g>
<!-- n17&#45;&#45;n16 -->
<g id="edge14" class="edge">
<title>n17--n16</title>
<path fill="none" stroke="#000000" d="M449.5828,-503.8314C450.6358,-493 451.969,-479.2876 453.0262,-468.4133"/>
</g>
<!-- n14 -->
<g id="node22" class="node">
<title>n14</title>
<ellipse fill="none" stroke="#000000" cx="457.8164" cy="-378" rx="27" ry="18"/>
<text text-anchor="middle" x="457.8164" y="-373.8" font-family="Times,serif" font-size="14.00" fill="#000000">v</text>
</g>
<!-- n16&#45;&#45;n14 -->
<g id="edge12" class="edge">
<title>n16--n14</title>
<path fill="none" stroke="#000000" d="M455.5734,-431.8314C456.0247,-421 456.5961,-407.2876 457.0491,-396.4133"/>
</g>
<!-- n15 -->
<g id="node23" class="node">
<title>n15</title>
<ellipse fill="none" stroke="#000000" cx="529.8164" cy="-378" rx="27" ry="18"/>
<text text-anchor="middle" x="529.8164" y="-373.8" font-family="Times,serif" font-size="14.00" fill="#000000">c</text>
</g>
<!-- n16&#45;&#45;n15 -->
<g id="edge13" class="edge">
<title>n16--n15</title>
<path fill="none" stroke="#000000" d="M470.3564,-435.0816C483.2283,-422.7246 501.4299,-405.251 514.2962,-392.8993"/>
</g>
<!-- n32 -->
<g id="node25" class="node">
<title>n32</title>
<ellipse fill="none" stroke="#000000" cx="543.8164" cy="-594" rx="44.0833" ry="18"/>
<text text-anchor="middle" x="543.8164" y="-589.8" font-family="Times,serif" font-size="14.00" fill="#000000">exemplo</text>
</g>
<!-- n31&#45;&#45;n32 -->
<g id="edge30" class="edge">
<title>n31--n32</title>
<path fill="none" stroke="#000000" d="M579.678,-648.937C572.2944,-637.626 562.6348,-622.8282 555.2013,-611.4407"/>
</g>
<!-- n30 -->
<g id="node26" class="node">
<title>n30</title>
<ellipse fill="none" stroke="#000000" cx="638.8164" cy="-594" rx="32.4788" ry="18"/>
<text text-anchor="middle" x="638.8164" y="-589.8" font-family="Times,serif" font-size="14.00" fill="#000000">fields</text>
</g>
<!-- n31&#45;&#45;n30 -->
<g id="edge31" class="edge">
<title>n31--n30</title>
<path fill="none" stroke="#000000" d="M602.1917,-648.937C609.8433,-637.4596 619.8882,-622.3922 627.5227,-610.9405"/>
</g>
<!-- n21 -->
<g id="node27" class="node">
<title>n21</title>
<ellipse fill="none" stroke="#000000" cx="599.8164" cy="-522" rx="28.9696" ry="18"/>
<text text-anchor="middle" x="599.8164" y="-517.8" font-family="Times,serif" font-size="14.00" fill="#000000">field</text>
</g>
<!-- n30&#45;&#45;n21 -->
<g id="edge28" class="edge">
<title>n30--n21</title>
<path fill="none" stroke="#000000" d="M629.3756,-576.5708C623.2438,-565.2506 615.2846,-550.5568 609.1702,-539.2687"/>
</g>
<!-- n29 -->
<g id="node30" class="node">
<title>n29</title>
<ellipse fill="none" stroke="#000000" cx="678.8164" cy="-522" rx="32.4788" ry="18"/>
<text text-anchor="middle" x="678.8164" y="-517.8" font-family="Times,serif" font-size="14.00" fill="#000000">fields</text>
</g>
<!-- n30&#45;&#45;n29 -->
<g id="edge29" class="edge">
<title>n30--n29</title>
<path fill="none" stroke="#000000" d="M648.4993,-576.5708C654.7882,-565.2506 662.9515,-550.5568 669.2227,-539.2687"/>
</g>
<!-- n20 -->
<g id="node28" class="node">
<title>n20</title>
<ellipse fill="none" stroke="#000000" cx="528.8164" cy="-450" rx="28.9696" ry="18"/>
<text text-anchor="middle" x="528.8164" y="-445.8" font-family="Times,serif" font-size="14.00" fill="#000000">float</text>
</g>
<!-- n21&#45;&#45;n20 -->
<g id="edge20" class="edge">
<title>n21--n20</title>
<path fill="none" stroke="#000000" d="M584.4104,-506.3771C572.5013,-494.3003 556.0937,-477.6616 544.1922,-465.5924"/>
</g>
<!-- n22 -->
<g id="node29" class="node">
<title>n22</title>
<ellipse fill="none" stroke="#000000" cx="602.8164" cy="-450" rx="27" ry="18"/>
<text text-anchor="middle" x="602.8164" y="-445.8" font-family="Times,serif" font-size="14.00" fill="#000000">bb</text>
</g>
<!-- n21&#45;&#45;n22 -->
<g id="edge21" class="edge">
<title>n21--n22</title>
<path fill="none" stroke="#000000" d="M600.5734,-503.8314C601.0247,-493 601.5961,-479.2876 602.0491,-468.4133"/>
</g>
<!-- n24 -->
<g id="node31" class="node">
<title>n24</title>
<ellipse fill="none" stroke="#000000" cx="676.8164" cy="-450" rx="28.9696" ry="18"/>
<text text-anchor="middle" x="676.8164" y="-445.8" font-family="Times,serif" font-size="14.00" fill="#000000">field</text>
</g>
<!-- n29&#45;&#45;n24 -->
<g id="edge26" class="edge">
<title>n29--n24</title>
<path fill="none" stroke="#000000" d="M678.3117,-503.8314C678.0108,-493 677.6299,-479.2876 677.3278,-468.4133"/>
</g>
<!-- n27 -->
<g id="node34" class="node">
<title>n27</title>
<ellipse fill="none" stroke="#000000" cx="751.8164" cy="-450" rx="28.9696" ry="18"/>
<text text-anchor="middle" x="751.8164" y="-445.8" font-family="Times,serif" font-size="14.00" fill="#000000">field</text>
</g>
<!-- n29&#45;&#45;n27 -->
<g id="edge27" class="edge">
<title>n29--n27</title>
<path fill="none" stroke="#000000" d="M695.0174,-506.0209C707.2828,-493.9235 724.0322,-477.4036 736.1616,-465.4403"/>
</g>
<!-- n23 -->
<g id="node32" class="node">
<title>n23</title>
<ellipse fill="none" stroke="#000000" cx="604.8164" cy="-378" rx="27" ry="18"/>
<text text-anchor="middle" x="604.8164" y="-373.8" font-family="Times,serif" font-size="14.00" fill="#000000">int</text>
</g>
<!-- n24&#45;&#45;n23 -->
<g id="edge22" class="edge">
<title>n24--n23</title>
<path fill="none" stroke="#000000" d="M661.547,-434.7307C649.3284,-422.512 632.2765,-405.4602 620.0637,-393.2473"/>
</g>
<!-- n25 -->
<g id="node33" class="node">
<title>n25</title>
<ellipse fill="none" stroke="#000000" cx="676.8164" cy="-378" rx="27" ry="18"/>
<text text-anchor="middle" x="676.8164" y="-373.8" font-family="Times,serif" font-size="14.00" fill="#000000">aa</text>
</g>
<!-- n24&#45;&#45;n25 -->
<g id="edge23" class="edge">
<title>n24--n25</title>
<path fill="none" stroke="#000000" d="M676.8164,-431.8314C676.8164,-421 676.8164,-407.2876 676.8164,-396.4133"/>
</g>
<!-- n26 -->
<g id="node35" class="node">
<title>n26</title>
<ellipse fill="none" stroke="#000000" cx="748.8164" cy="-378" rx="27" ry="18"/>
<text text-anchor="middle" x="748.8164" y="-373.8" font-family="Times,serif" font-size="14.00" fill="#000000">int</text>
</g>
<!-- n27&#45;&#45;n26 -->
<g id="edge24" class="edge">
<title>n27--n26</title>
<path fill="none" stroke="#000000" d="M751.0593,-431.8314C750.608,-421 750.0367,-407.2876 749.5836,-396.4133"/>
</g>
<!-- n28 -->
<g id="node36" class="node">
<title>n28</title>
<ellipse fill="none" stroke="#000000" cx="820.8164" cy="-378" rx="27" ry="18"/>
<text text-anchor="middle" x="820.8164" y="-373.8" font-family="Times,serif" font-size="14.00" fill="#000000">cc</text>
</g>
<!-- n27&#45;&#45;n28 -->
<g id="edge25" class="edge">
<title>n27--n28</title>
<path fill="none" stroke="#000000" d="M766.7883,-434.3771C778.362,-422.3003 794.3074,-405.6616 805.8736,-393.5924"/>
</g>
<!-- n34 -->
<g id="node38" class="node">
<title>n34</title>
<ellipse fill="none" stroke="#000000" cx="825.8164" cy="-666" rx="27" ry="18"/>
<text text-anchor="middle" x="825.8164" y="-661.8" font-family="Times,serif" font-size="14.00" fill="#000000">int</text>
</g>
<!-- n98&#45;&#45;n34 -->
<g id="edge95" class="edge">
<title>n98--n34</title>
<path fill="none" stroke="#000000" d="M853.1018,-720.5708C847.4417,-709.2506 840.0948,-694.5568 834.4507,-683.2687"/>
</g>
<!-- n36 -->
<g id="node39" class="node">
<title>n36</title>
<ellipse fill="none" stroke="#000000" cx="897.8164" cy="-666" rx="27" ry="18"/>
<text text-anchor="middle" x="897.8164" y="-661.8" font-family="Times,serif" font-size="14.00" fill="#000000">arg</text>
</g>
<!-- n98&#45;&#45;n36 -->
<g id="edge96" class="edge">
<title>n98--n36</title>
<path fill="none" stroke="#000000" d="M870.531,-720.5708C876.1911,-709.2506 883.538,-694.5568 889.182,-683.2687"/>
</g>
<!-- n97 -->
<g id="node42" class="node">
<title>n97</title>
<ellipse fill="none" stroke="#000000" cx="1273.8164" cy="-666" rx="31.3545" ry="18"/>
<text text-anchor="middle" x="1273.8164" y="-661.8" font-family="Times,serif" font-size="14.00" fill="#000000">stmts</text>
</g>
<!-- n98&#45;&#45;n97 -->
<g id="edge97" class="edge">
<title>n98--n97</title>
<path fill="none" stroke="#000000" d="M891.1161,-732.8797C966.5816,-719.6915 1167.0427,-684.6595 1243.5566,-671.2881"/>
</g>
<!-- n35 -->
<g id="node40" class="node">
<title>n35</title>
<ellipse fill="none" stroke="#000000" cx="861.8164" cy="-594" rx="27" ry="18"/>
<text text-anchor="middle" x="861.8164" y="-589.8" font-family="Times,serif" font-size="14.00" fill="#000000">int</text>
</g>
<!-- n36&#45;&#45;n35 -->
<g id="edge34" class="edge">
<title>n36--n35</title>
<path fill="none" stroke="#000000" d="M889.1018,-648.5708C883.4417,-637.2506 876.0948,-622.5568 870.4507,-611.2687"/>
</g>
<!-- n37 -->
<g id="node41" class="node">
<title>n37</title>
<ellipse fill="none" stroke="#000000" cx="934.8164" cy="-594" rx="27.8073" ry="18"/>
<text text-anchor="middle" x="934.8164" y="-589.8" font-family="Times,serif" font-size="14.00" fill="#000000">argc</text>
</g>
<!-- n36&#45;&#45;n37 -->
<g id="edge35" class="edge">
<title>n36--n37</title>
<path fill="none" stroke="#000000" d="M906.5849,-648.937C912.3975,-637.626 920.0019,-622.8282 925.8538,-611.4407"/>
</g>
<!-- n92 -->
<g id="node43" class="node">
<title>n92</title>
<ellipse fill="none" stroke="#000000" cx="1273.8164" cy="-594" rx="31.3545" ry="18"/>
<text text-anchor="middle" x="1273.8164" y="-589.8" font-family="Times,serif" font-size="14.00" fill="#000000">stmts</text>
</g>
<!-- n97&#45;&#45;n92 -->
<g id="edge93" class="edge">
<title>n97--n92</title>
<path fill="none" stroke="#000000" d="M1273.8164,-647.8314C1273.8164,-637 1273.8164,-623.2876 1273.8164,-612.4133"/>
</g>
<!-- n96 -->
<g id="node98" class="node">
<title>n96</title>
<ellipse fill="none" stroke="#000000" cx="1522.8164" cy="-594" rx="27" ry="18"/>
<text text-anchor="middle" x="1522.8164" y="-589.8" font-family="Times,serif" font-size="14.00" fill="#000000">else</text>
</g>
<!-- n97&#45;&#45;n96 -->
<g id="edge94" class="edge">
<title>n97--n96</title>
<path fill="none" stroke="#000000" d="M1301.8958,-657.8806C1350.8629,-643.7215 1451.1039,-614.7361 1497.8201,-601.2278"/>
</g>
<!-- n75 -->
<g id="node44" class="node">
<title>n75</title>
<ellipse fill="none" stroke="#000000" cx="1152.8164" cy="-522" rx="31.3545" ry="18"/>
<text text-anchor="middle" x="1152.8164" y="-517.8" font-family="Times,serif" font-size="14.00" fill="#000000">stmts</text>
</g>
<!-- n92&#45;&#45;n75 -->
<g id="edge88" class="edge">
<title>n92--n75</title>
<path fill="none" stroke="#000000" d="M1251.9042,-580.9613C1230.1111,-567.9936 1196.8532,-548.2037 1174.9744,-535.185"/>
</g>
<!-- n91 -->
<g id="node82" class="node">
<title>n91</title>
<ellipse fill="none" stroke="#000000" cx="1420.8164" cy="-522" rx="27" ry="18"/>
<text text-anchor="middle" x="1420.8164" y="-517.8" font-family="Times,serif" font-size="14.00" fill="#000000">if</text>
</g>
<!-- n92&#45;&#45;n91 -->
<g id="edge89" class="edge">
<title>n92--n91</title>
<path fill="none" stroke="#000000" d="M1297.7616,-582.2717C1325.748,-568.5641 1371.6766,-546.0685 1398.804,-532.7816"/>
</g>
<!-- n65 -->
<g id="node45" class="node">
<title>n65</title>
<ellipse fill="none" stroke="#000000" cx="972.8164" cy="-450" rx="31.3545" ry="18"/>
<text text-anchor="middle" x="972.8164" y="-445.8" font-family="Times,serif" font-size="14.00" fill="#000000">stmts</text>
</g>
<!-- n75&#45;&#45;n65 -->
<g id="edge71" class="edge">
<title>n75--n65</title>
<path fill="none" stroke="#000000" d="M1127.0268,-511.6842C1092.906,-498.0358 1033.093,-474.1107 998.8502,-460.4135"/>
</g>
<!-- n72 -->
<g id="node73" class="node">
<title>n72</title>
<ellipse fill="none" stroke="#000000" cx="1152.8164" cy="-450" rx="46.347" ry="18"/>
<text text-anchor="middle" x="1152.8164" y="-445.8" font-family="Times,serif" font-size="14.00" fill="#000000">funcDecl</text>
</g>
<!-- n75&#45;&#45;n72 -->
<g id="edge72" class="edge">
<title>n75--n72</title>
<path fill="none" stroke="#000000" d="M1152.8164,-503.8314C1152.8164,-493 1152.8164,-479.2876 1152.8164,-468.4133"/>
</g>
<!-- n57 -->
<g id="node46" class="node">
<title>n57</title>
<ellipse fill="none" stroke="#000000" cx="896.8164" cy="-378" rx="31.3545" ry="18"/>
<text text-anchor="middle" x="896.8164" y="-373.8" font-family="Times,serif" font-size="14.00" fill="#000000">stmts</text>
</g>
<!-- n65&#45;&#45;n57 -->
<g id="edge61" class="edge">
<title>n65--n57</title>
<path fill="none" stroke="#000000" d="M956.3255,-434.3771C943.5778,-422.3003 926.0147,-405.6616 913.2751,-393.5924"/>
</g>
<!-- n64 -->
<g id="node66" class="node">
<title>n64</title>
<ellipse fill="none" stroke="#000000" cx="972.8164" cy="-378" rx="27" ry="18"/>
<text text-anchor="middle" x="972.8164" y="-373.8" font-family="Times,serif" font-size="14.00" fill="#000000">c</text>
</g>
<!-- n65&#45;&#45;n64 -->
<g id="edge62" class="edge">
<title>n65--n64</title>
<path fill="none" stroke="#000000" d="M972.8164,-431.8314C972.8164,-421 972.8164,-407.2876 972.8164,-396.4133"/>
</g>
<!-- n48 -->
<g id="node47" class="node">
<title>n48</title>
<ellipse fill="none" stroke="#000000" cx="789.8164" cy="-306" rx="31.3545" ry="18"/>
<text text-anchor="middle" x="789.8164" y="-301.8" font-family="Times,serif" font-size="14.00" fill="#000000">stmts</text>
</g>
<!-- n57&#45;&#45;n48 -->
<g id="edge53" class="edge">
<title>n57--n48</title>
<path fill="none" stroke="#000000" d="M876.4386,-364.2879C857.5205,-351.5579 829.4927,-332.6981 810.4827,-319.9063"/>
</g>
<!-- n56 -->
<g id="node58" class="node">
<title>n56</title>
<ellipse fill="none" stroke="#000000" cx="896.8164" cy="-306" rx="27" ry="18"/>
<text text-anchor="middle" x="896.8164" y="-301.8" font-family="Times,serif" font-size="14.00" fill="#000000">c</text>
</g>
<!-- n57&#45;&#45;n56 -->
<g id="edge54" class="edge">
<title>n57--n56</title>
<path fill="none" stroke="#000000" d="M896.8164,-359.8314C896.8164,-349 896.8164,-335.2876 896.8164,-324.4133"/>
</g>
<!-- n44 -->
<g id="node48" class="node">
<title>n44</title>
<ellipse fill="none" stroke="#000000" cx="713.8164" cy="-234" rx="31.3545" ry="18"/>
<text text-anchor="middle" x="713.8164" y="-229.8" font-family="Times,serif" font-size="14.00" fill="#000000">stmts</text>
</g>
<!-- n48&#45;&#45;n44 -->
<g id="edge44" class="edge">
<title>n48--n44</title>
<path fill="none" stroke="#000000" d="M773.3255,-290.3771C760.5778,-278.3003 743.0147,-261.6616 730.2751,-249.5924"/>
</g>
<!-- n47 -->
<g id="node55" class="node">
<title>n47</title>
<ellipse fill="none" stroke="#000000" cx="789.8164" cy="-234" rx="27" ry="18"/>
<text text-anchor="middle" x="789.8164" y="-229.8" font-family="Times,serif" font-size="14.00" fill="#000000">e</text>
</g>
<!-- n48&#45;&#45;n47 -->
<g id="edge45" class="edge">
<title>n48--n47</title>
<path fill="none" stroke="#000000" d="M789.8164,-287.8314C789.8164,-277 789.8164,-263.2876 789.8164,-252.4133"/>
</g>
<!-- n40 -->
<g id="node49" class="node">
<title>n40</title>
<ellipse fill="none" stroke="#000000" cx="641.8164" cy="-162" rx="27" ry="18"/>
<text text-anchor="middle" x="641.8164" y="-157.8" font-family="Times,serif" font-size="14.00" fill="#000000">a</text>
</g>
<!-- n44&#45;&#45;n40 -->
<g id="edge40" class="edge">
<title>n44--n40</title>
<path fill="none" stroke="#000000" d="M698.1934,-218.3771C685.9512,-206.1348 669.0212,-189.2049 656.9154,-177.099"/>
</g>
<!-- n43 -->
<g id="node52" class="node">
<title>n43</title>
<ellipse fill="none" stroke="#000000" cx="713.8164" cy="-162" rx="27" ry="18"/>
<text text-anchor="middle" x="713.8164" y="-157.8" font-family="Times,serif" font-size="14.00" fill="#000000">b</text>
</g>
<!-- n44&#45;&#45;n43 -->
<g id="edge41" class="edge">
<title>n44--n43</title>
<path fill="none" stroke="#000000" d="M713.8164,-215.8314C713.8164,-205 713.8164,-191.2876 713.8164,-180.4133"/>
</g>
<!-- n38 -->
<g id="node50" class="node">
<title>n38</title>
<ellipse fill="none" stroke="#000000" cx="569.8164" cy="-90" rx="27" ry="18"/>
<text text-anchor="middle" x="569.8164" y="-85.8" font-family="Times,serif" font-size="14.00" fill="#000000">int</text>
</g>
<!-- n40&#45;&#45;n38 -->
<g id="edge36" class="edge">
<title>n40--n38</title>
<path fill="none" stroke="#000000" d="M626.547,-146.7307C614.3284,-134.512 597.2765,-117.4602 585.0637,-105.2473"/>
</g>
<!-- n39 -->
<g id="node51" class="node">
<title>n39</title>
<ellipse fill="none" stroke="#000000" cx="641.8164" cy="-90" rx="27" ry="18"/>
<text text-anchor="middle" x="641.8164" y="-85.8" font-family="Times,serif" font-size="14.00" fill="#000000">10</text>
</g>
<!-- n40&#45;&#45;n39 -->
<g id="edge37" class="edge">
<title>n40--n39</title>
<path fill="none" stroke="#000000" d="M641.8164,-143.8314C641.8164,-133 641.8164,-119.2876 641.8164,-108.4133"/>
</g>
<!-- n41 -->
<g id="node53" class="node">
<title>n41</title>
<ellipse fill="none" stroke="#000000" cx="713.8164" cy="-90" rx="27" ry="18"/>
<text text-anchor="middle" x="713.8164" y="-85.8" font-family="Times,serif" font-size="14.00" fill="#000000">int</text>
</g>
<!-- n43&#45;&#45;n41 -->
<g id="edge38" class="edge">
<title>n43--n41</title>
<path fill="none" stroke="#000000" d="M713.8164,-143.8314C713.8164,-133 713.8164,-119.2876 713.8164,-108.4133"/>
</g>
<!-- n42 -->
<g id="node54" class="node">
<title>n42</title>
<ellipse fill="none" stroke="#000000" cx="785.8164" cy="-90" rx="27" ry="18"/>
<text text-anchor="middle" x="785.8164" y="-85.8" font-family="Times,serif" font-size="14.00" fill="#000000">30</text>
</g>
<!-- n43&#45;&#45;n42 -->
<g id="edge39" class="edge">
<title>n43--n42</title>
<path fill="none" stroke="#000000" d="M729.0857,-146.7307C741.3044,-134.512 758.3562,-117.4602 770.569,-105.2473"/>
</g>
<!-- n45 -->
<g id="node56" class="node">
<title>n45</title>
<ellipse fill="none" stroke="#000000" cx="787.8164" cy="-162" rx="28.9696" ry="18"/>
<text text-anchor="middle" x="787.8164" y="-157.8" font-family="Times,serif" font-size="14.00" fill="#000000">float</text>
</g>
<!-- n47&#45;&#45;n45 -->
<g id="edge42" class="edge">
<title>n47--n45</title>
<path fill="none" stroke="#000000" d="M789.3117,-215.8314C789.0108,-205 788.6299,-191.2876 788.3278,-180.4133"/>
</g>
<!-- n46 -->
<g id="node57" class="node">
<title>n46</title>
<ellipse fill="none" stroke="#000000" cx="861.8164" cy="-162" rx="27" ry="18"/>
<text text-anchor="middle" x="861.8164" y="-157.8" font-family="Times,serif" font-size="14.00" fill="#000000">0</text>
</g>
<!-- n47&#45;&#45;n46 -->
<g id="edge43" class="edge">
<title>n47--n46</title>
<path fill="none" stroke="#000000" d="M805.0857,-218.7307C817.3044,-206.512 834.3562,-189.4602 846.569,-177.2473"/>
</g>
<!-- n49 -->
<g id="node59" class="node">
<title>n49</title>
<ellipse fill="none" stroke="#000000" cx="861.8164" cy="-234" rx="27" ry="18"/>
<text text-anchor="middle" x="861.8164" y="-229.8" font-family="Times,serif" font-size="14.00" fill="#000000">int</text>
</g>
<!-- n56&#45;&#45;n49 -->
<g id="edge51" class="edge">
<title>n56--n49</title>
<path fill="none" stroke="#000000" d="M888.3438,-288.5708C882.841,-277.2506 875.6981,-262.5568 870.2109,-251.2687"/>
</g>
<!-- n55 -->
<g id="node60" class="node">
<title>n55</title>
<ellipse fill="none" stroke="#000000" cx="933.8164" cy="-234" rx="27" ry="18"/>
<text text-anchor="middle" x="933.8164" y="-229.8" font-family="Times,serif" font-size="14.00" fill="#000000">/</text>
</g>
<!-- n56&#45;&#45;n55 -->
<g id="edge52" class="edge">
<title>n56--n55</title>
<path fill="none" stroke="#000000" d="M905.5849,-288.937C911.3975,-277.626 919.0019,-262.8282 924.8538,-251.4407"/>
</g>
<!-- n53 -->
<g id="node61" class="node">
<title>n53</title>
<ellipse fill="none" stroke="#000000" cx="933.8164" cy="-162" rx="27" ry="18"/>
<text text-anchor="middle" x="933.8164" y="-157.8" font-family="Times,serif" font-size="14.00" fill="#000000">()</text>
</g>
<!-- n55&#45;&#45;n53 -->
<g id="edge49" class="edge">
<title>n55--n53</title>
<path fill="none" stroke="#000000" d="M933.8164,-215.8314C933.8164,-205 933.8164,-191.2876 933.8164,-180.4133"/>
</g>
<!-- n54 -->
<g id="node65" class="node">
<title>n54</title>
<ellipse fill="none" stroke="#000000" cx="1005.8164" cy="-162" rx="27" ry="18"/>
<text text-anchor="middle" x="1005.8164" y="-157.8" font-family="Times,serif" font-size="14.00" fill="#000000">b</text>
</g>
<!-- n55&#45;&#45;n54 -->
<g id="edge50" class="edge">
<title>n55--n54</title>
<path fill="none" stroke="#000000" d="M949.0857,-218.7307C961.3044,-206.512 978.3562,-189.4602 990.569,-177.2473"/>
</g>
<!-- n52 -->
<g id="node62" class="node">
<title>n52</title>
<ellipse fill="none" stroke="#000000" cx="933.8164" cy="-90" rx="27" ry="18"/>
<text text-anchor="middle" x="933.8164" y="-85.8" font-family="Times,serif" font-size="14.00" fill="#000000">+</text>
</g>
<!-- n53&#45;&#45;n52 -->
<g id="edge48" class="edge">
<title>n53--n52</title>
<path fill="none" stroke="#000000" d="M933.8164,-143.8314C933.8164,-133 933.8164,-119.2876 933.8164,-108.4133"/>
</g>
<!-- n50 -->
<g id="node63" class="node">
<title>n50</title>
<ellipse fill="none" stroke="#000000" cx="897.8164" cy="-18" rx="27" ry="18"/>
<text text-anchor="middle" x="897.8164" y="-13.8" font-family="Times,serif" font-size="14.00" fill="#000000">a</text>
</g>
<!-- n52&#45;&#45;n50 -->
<g id="edge46" class="edge">
<title>n52--n50</title>
<path fill="none" stroke="#000000" d="M925.1018,-72.5708C919.4417,-61.2506 912.0948,-46.5568 906.4507,-35.2687"/>
</g>
<!-- n51 -->
<g id="node64" class="node">
<title>n51</title>
<ellipse fill="none" stroke="#000000" cx="969.8164" cy="-18" rx="27" ry="18"/>
<text text-anchor="middle" x="969.8164" y="-13.8" font-family="Times,serif" font-size="14.00" fill="#000000">b</text>
</g>
<!-- n52&#45;&#45;n51 -->
<g id="edge47" class="edge">
<title>n52--n51</title>
<path fill="none" stroke="#000000" d="M942.531,-72.5708C948.1911,-61.2506 955.538,-46.5568 961.182,-35.2687"/>
</g>
<!-- n63 -->
<g id="node67" class="node">
<title>n63</title>
<ellipse fill="none" stroke="#000000" cx="1005.8164" cy="-306" rx="27" ry="18"/>
<text text-anchor="middle" x="1005.8164" y="-301.8" font-family="Times,serif" font-size="14.00" fill="#000000">/</text>
</g>
<!-- n64&#45;&#45;n63 -->
<g id="edge60" class="edge">
<title>n64--n63</title>
<path fill="none" stroke="#000000" d="M980.8047,-360.5708C985.9932,-349.2506 992.7278,-334.5568 997.9016,-323.2687"/>
</g>
<!-- n58 -->
<g id="node68" class="node">
<title>n58</title>
<ellipse fill="none" stroke="#000000" cx="1005.8164" cy="-234" rx="27" ry="18"/>
<text text-anchor="middle" x="1005.8164" y="-229.8" font-family="Times,serif" font-size="14.00" fill="#000000">c</text>
</g>
<!-- n63&#45;&#45;n58 -->
<g id="edge58" class="edge">
<title>n63--n58</title>
<path fill="none" stroke="#000000" d="M1005.8164,-287.8314C1005.8164,-277 1005.8164,-263.2876 1005.8164,-252.4133"/>
</g>
<!-- n62 -->
<g id="node69" class="node">
<title>n62</title>
<ellipse fill="none" stroke="#000000" cx="1077.8164" cy="-234" rx="27" ry="18"/>
<text text-anchor="middle" x="1077.8164" y="-229.8" font-family="Times,serif" font-size="14.00" fill="#000000">()</text>
</g>
<!-- n63&#45;&#45;n62 -->
<g id="edge59" class="edge">
<title>n63--n62</title>
<path fill="none" stroke="#000000" d="M1021.0857,-290.7307C1033.3044,-278.512 1050.3562,-261.4602 1062.569,-249.2473"/>
</g>
<!-- n61 -->
<g id="node70" class="node">
<title>n61</title>
<ellipse fill="none" stroke="#000000" cx="1077.8164" cy="-162" rx="27" ry="18"/>
<text text-anchor="middle" x="1077.8164" y="-157.8" font-family="Times,serif" font-size="14.00" fill="#000000">*</text>
</g>
<!-- n62&#45;&#45;n61 -->
<g id="edge57" class="edge">
<title>n62--n61</title>
<path fill="none" stroke="#000000" d="M1077.8164,-215.8314C1077.8164,-205 1077.8164,-191.2876 1077.8164,-180.4133"/>
</g>
<!-- n59 -->
<g id="node71" class="node">
<title>n59</title>
<ellipse fill="none" stroke="#000000" cx="1041.8164" cy="-90" rx="27" ry="18"/>
<text text-anchor="middle" x="1041.8164" y="-85.8" font-family="Times,serif" font-size="14.00" fill="#000000">a</text>
</g>
<!-- n61&#45;&#45;n59 -->
<g id="edge55" class="edge">
<title>n61--n59</title>
<path fill="none" stroke="#000000" d="M1069.1018,-144.5708C1063.4417,-133.2506 1056.0948,-118.5568 1050.4507,-107.2687"/>
</g>
<!-- n60 -->
<g id="node72" class="node">
<title>n60</title>
<ellipse fill="none" stroke="#000000" cx="1113.8164" cy="-90" rx="27" ry="18"/>
<text text-anchor="middle" x="1113.8164" y="-85.8" font-family="Times,serif" font-size="14.00" fill="#000000">b</text>
</g>
<!-- n61&#45;&#45;n60 -->
<g id="edge56" class="edge">
<title>n61--n60</title>
<path fill="none" stroke="#000000" d="M1086.531,-144.5708C1092.1911,-133.2506 1099.538,-118.5568 1105.182,-107.2687"/>
</g>
<!-- n66 -->
<g id="node74" class="node">
<title>n66</title>
<ellipse fill="none" stroke="#000000" cx="1044.8164" cy="-378" rx="27" ry="18"/>
<text text-anchor="middle" x="1044.8164" y="-373.8" font-family="Times,serif" font-size="14.00" fill="#000000">int</text>
</g>
<!-- n72&#45;&#45;n66 -->
<g id="edge67" class="edge">
<title>n72--n66</title>
<path fill="none" stroke="#000000" d="M1129.382,-434.3771C1109.9019,-421.3904 1082.5091,-403.1285 1064.2357,-390.9462"/>
</g>
<!-- n73 -->
<g id="node75" class="node">
<title>n73</title>
<ellipse fill="none" stroke="#000000" cx="1116.8164" cy="-378" rx="27" ry="18"/>
<text text-anchor="middle" x="1116.8164" y="-373.8" font-family="Times,serif" font-size="14.00" fill="#000000">d</text>
</g>
<!-- n72&#45;&#45;n73 -->
<g id="edge68" class="edge">
<title>n72--n73</title>
<path fill="none" stroke="#000000" d="M1143.9175,-432.2022C1138.254,-420.8753 1130.9593,-406.2859 1125.365,-395.0972"/>
</g>
<!-- n74 -->
<g id="node76" class="node">
<title>n74</title>
<ellipse fill="none" stroke="#000000" cx="1189.8164" cy="-378" rx="28.3913" ry="18"/>
<text text-anchor="middle" x="1189.8164" y="-373.8" font-family="Times,serif" font-size="14.00" fill="#000000">func</text>
</g>
<!-- n72&#45;&#45;n74 -->
<g id="edge69" class="edge">
<title>n72--n74</title>
<path fill="none" stroke="#000000" d="M1161.9624,-432.2022C1167.7404,-420.9586 1175.1704,-406.5003 1180.9032,-395.3446"/>
</g>
<!-- n71 -->
<g id="node77" class="node">
<title>n71</title>
<ellipse fill="none" stroke="#000000" cx="1262.8164" cy="-378" rx="27.2447" ry="18"/>
<text text-anchor="middle" x="1262.8164" y="-373.8" font-family="Times,serif" font-size="14.00" fill="#000000">args</text>
</g>
<!-- n72&#45;&#45;n71 -->
<g id="edge70" class="edge">
<title>n72--n71</title>
<path fill="none" stroke="#000000" d="M1176.6847,-434.3771C1196.6519,-421.3076 1224.7814,-402.8956 1243.3919,-390.7142"/>
</g>
<!-- n67 -->
<g id="node78" class="node">
<title>n67</title>
<ellipse fill="none" stroke="#000000" cx="1169.8164" cy="-306" rx="27" ry="18"/>
<text text-anchor="middle" x="1169.8164" y="-301.8" font-family="Times,serif" font-size="14.00" fill="#000000">arg</text>
</g>
<!-- n71&#45;&#45;n67 -->
<g id="edge65" class="edge">
<title>n71--n67</title>
<path fill="none" stroke="#000000" d="M1244.885,-364.1177C1228.4168,-351.3681 1204.1434,-332.5758 1187.6927,-319.8397"/>
</g>
<!-- n69 -->
<g id="node80" class="node">
<title>n69</title>
<ellipse fill="none" stroke="#000000" cx="1241.8164" cy="-306" rx="27" ry="18"/>
<text text-anchor="middle" x="1241.8164" y="-301.8" font-family="Times,serif" font-size="14.00" fill="#000000">arg</text>
</g>
<!-- n71&#45;&#45;n69 -->
<g id="edge66" class="edge">
<title>n71--n69</title>
<path fill="none" stroke="#000000" d="M1257.6254,-360.2022C1254.3945,-349.1252 1250.2537,-334.928 1247.0204,-323.8425"/>
</g>
<!-- n68 -->
<g id="node79" class="node">
<title>n68</title>
<ellipse fill="none" stroke="#000000" cx="1169.8164" cy="-234" rx="27" ry="18"/>
<text text-anchor="middle" x="1169.8164" y="-229.8" font-family="Times,serif" font-size="14.00" fill="#000000">a</text>
</g>
<!-- n67&#45;&#45;n68 -->
<g id="edge63" class="edge">
<title>n67--n68</title>
<path fill="none" stroke="#000000" d="M1169.8164,-287.8314C1169.8164,-277 1169.8164,-263.2876 1169.8164,-252.4133"/>
</g>
<!-- n70 -->
<g id="node81" class="node">
<title>n70</title>
<ellipse fill="none" stroke="#000000" cx="1241.8164" cy="-234" rx="27" ry="18"/>
<text text-anchor="middle" x="1241.8164" y="-229.8" font-family="Times,serif" font-size="14.00" fill="#000000">b</text>
</g>
<!-- n69&#45;&#45;n70 -->
<g id="edge64" class="edge">
<title>n69--n70</title>
<path fill="none" stroke="#000000" d="M1241.8164,-287.8314C1241.8164,-277 1241.8164,-263.2876 1241.8164,-252.4133"/>
</g>
<!-- n82 -->
<g id="node83" class="node">
<title>n82</title>
<ellipse fill="none" stroke="#000000" cx="1420.8164" cy="-450" rx="27" ry="18"/>
<text text-anchor="middle" x="1420.8164" y="-445.8" font-family="Times,serif" font-size="14.00" fill="#000000">&amp;&amp;</text>
</g>
<!-- n91&#45;&#45;n82 -->
<g id="edge86" class="edge">
<title>n91--n82</title>
<path fill="none" stroke="#000000" d="M1420.8164,-503.8314C1420.8164,-493 1420.8164,-479.2876 1420.8164,-468.4133"/>
</g>
<!-- n90 -->
<g id="node90" class="node">
<title>n90</title>
<ellipse fill="none" stroke="#000000" cx="1566.8164" cy="-450" rx="32.4808" ry="18"/>
<text text-anchor="middle" x="1566.8164" y="-445.8" font-family="Times,serif" font-size="14.00" fill="#000000">while</text>
</g>
<!-- n91&#45;&#45;n90 -->
<g id="edge87" class="edge">
<title>n91--n90</title>
<path fill="none" stroke="#000000" d="M1442.674,-511.2209C1469.4025,-498.0397 1514.5135,-475.7932 1542.369,-462.0563"/>
</g>
<!-- n78 -->
<g id="node84" class="node">
<title>n78</title>
<ellipse fill="none" stroke="#000000" cx="1385.8164" cy="-378" rx="27" ry="18"/>
<text text-anchor="middle" x="1385.8164" y="-373.8" font-family="Times,serif" font-size="14.00" fill="#000000">&gt;</text>
</g>
<!-- n82&#45;&#45;n78 -->
<g id="edge77" class="edge">
<title>n82--n78</title>
<path fill="none" stroke="#000000" d="M1412.3438,-432.5708C1406.841,-421.2506 1399.6981,-406.5568 1394.2109,-395.2687"/>
</g>
<!-- n81 -->
<g id="node87" class="node">
<title>n81</title>
<ellipse fill="none" stroke="#000000" cx="1457.8164" cy="-378" rx="27" ry="18"/>
<text text-anchor="middle" x="1457.8164" y="-373.8" font-family="Times,serif" font-size="14.00" fill="#000000">&lt;</text>
</g>
<!-- n82&#45;&#45;n81 -->
<g id="edge78" class="edge">
<title>n82--n81</title>
<path fill="none" stroke="#000000" d="M1429.5849,-432.937C1435.3975,-421.626 1443.0019,-406.8282 1448.8538,-395.4407"/>
</g>
<!-- n76 -->
<g id="node85" class="node">
<title>n76</title>
<ellipse fill="none" stroke="#000000" cx="1313.8164" cy="-306" rx="27" ry="18"/>
<text text-anchor="middle" x="1313.8164" y="-301.8" font-family="Times,serif" font-size="14.00" fill="#000000">c</text>
</g>
<!-- n78&#45;&#45;n76 -->
<g id="edge73" class="edge">
<title>n78--n76</title>
<path fill="none" stroke="#000000" d="M1370.547,-362.7307C1358.3284,-350.512 1341.2765,-333.4602 1329.0637,-321.2473"/>
</g>
<!-- n77 -->
<g id="node86" class="node">
<title>n77</title>
<ellipse fill="none" stroke="#000000" cx="1385.8164" cy="-306" rx="27" ry="18"/>
<text text-anchor="middle" x="1385.8164" y="-301.8" font-family="Times,serif" font-size="14.00" fill="#000000">1</text>
</g>
<!-- n78&#45;&#45;n77 -->
<g id="edge74" class="edge">
<title>n78--n77</title>
<path fill="none" stroke="#000000" d="M1385.8164,-359.8314C1385.8164,-349 1385.8164,-335.2876 1385.8164,-324.4133"/>
</g>
<!-- n79 -->
<g id="node88" class="node">
<title>n79</title>
<ellipse fill="none" stroke="#000000" cx="1457.8164" cy="-306" rx="27" ry="18"/>
<text text-anchor="middle" x="1457.8164" y="-301.8" font-family="Times,serif" font-size="14.00" fill="#000000">b</text>
</g>
<!-- n81&#45;&#45;n79 -->
<g id="edge75" class="edge">
<title>n81--n79</title>
<path fill="none" stroke="#000000" d="M1457.8164,-359.8314C1457.8164,-349 1457.8164,-335.2876 1457.8164,-324.4133"/>
</g>
<!-- n80 -->
<g id="node89" class="node">
<title>n80</title>
<ellipse fill="none" stroke="#000000" cx="1529.8164" cy="-306" rx="27" ry="18"/>
<text text-anchor="middle" x="1529.8164" y="-301.8" font-family="Times,serif" font-size="14.00" fill="#000000">10</text>
</g>
<!-- n81&#45;&#45;n80 -->
<g id="edge76" class="edge">
<title>n81--n80</title>
<path fill="none" stroke="#000000" d="M1473.0857,-362.7307C1485.3044,-350.512 1502.3562,-333.4602 1514.569,-321.2473"/>
</g>
<!-- n85 -->
<g id="node91" class="node">
<title>n85</title>
<ellipse fill="none" stroke="#000000" cx="1601.8164" cy="-378" rx="27" ry="18"/>
<text text-anchor="middle" x="1601.8164" y="-373.8" font-family="Times,serif" font-size="14.00" fill="#000000">&lt;=</text>
</g>
<!-- n90&#45;&#45;n85 -->
<g id="edge84" class="edge">
<title>n90--n85</title>
<path fill="none" stroke="#000000" d="M1575.2889,-432.5708C1580.7918,-421.2506 1587.9346,-406.5568 1593.4219,-395.2687"/>
</g>
<!-- n89 -->
<g id="node94" class="node">
<title>n89</title>
<ellipse fill="none" stroke="#000000" cx="1709.8164" cy="-378" rx="27" ry="18"/>
<text text-anchor="middle" x="1709.8164" y="-373.8" font-family="Times,serif" font-size="14.00" fill="#000000">c</text>
</g>
<!-- n90&#45;&#45;n89 -->
<g id="edge85" class="edge">
<title>n90--n89</title>
<path fill="none" stroke="#000000" d="M1591.0744,-437.7862C1618.3265,-424.0648 1662.1521,-401.9988 1688.2506,-388.8583"/>
</g>
<!-- n83 -->
<g id="node92" class="node">
<title>n83</title>
<ellipse fill="none" stroke="#000000" cx="1601.8164" cy="-306" rx="27" ry="18"/>
<text text-anchor="middle" x="1601.8164" y="-301.8" font-family="Times,serif" font-size="14.00" fill="#000000">c</text>
</g>
<!-- n85&#45;&#45;n83 -->
<g id="edge79" class="edge">
<title>n85--n83</title>
<path fill="none" stroke="#000000" d="M1601.8164,-359.8314C1601.8164,-349 1601.8164,-335.2876 1601.8164,-324.4133"/>
</g>
<!-- n84 -->
<g id="node93" class="node">
<title>n84</title>
<ellipse fill="none" stroke="#000000" cx="1673.8164" cy="-306" rx="27" ry="18"/>
<text text-anchor="middle" x="1673.8164" y="-301.8" font-family="Times,serif" font-size="14.00" fill="#000000">20</text>
</g>
<!-- n85&#45;&#45;n84 -->
<g id="edge80" class="edge">
<title>n85--n84</title>
<path fill="none" stroke="#000000" d="M1617.0857,-362.7307C1629.3044,-350.512 1646.3562,-333.4602 1658.569,-321.2473"/>
</g>
<!-- n88 -->
<g id="node95" class="node">
<title>n88</title>
<ellipse fill="none" stroke="#000000" cx="1745.8164" cy="-306" rx="27" ry="18"/>
<text text-anchor="middle" x="1745.8164" y="-301.8" font-family="Times,serif" font-size="14.00" fill="#000000">+</text>
</g>
<!-- n89&#45;&#45;n88 -->
<g id="edge83" class="edge">
<title>n89--n88</title>
<path fill="none" stroke="#000000" d="M1718.531,-360.5708C1724.1911,-349.2506 1731.538,-334.5568 1737.182,-323.2687"/>
</g>
<!-- n86 -->
<g id="node96" class="node">
<title>n86</title>
<ellipse fill="none" stroke="#000000" cx="1709.8164" cy="-234" rx="27" ry="18"/>
<text text-anchor="middle" x="1709.8164" y="-229.8" font-family="Times,serif" font-size="14.00" fill="#000000">c</text>
</g>
<!-- n88&#45;&#45;n86 -->
<g id="edge81" class="edge">
<title>n88--n86</title>
<path fill="none" stroke="#000000" d="M1737.1018,-288.5708C1731.4417,-277.2506 1724.0948,-262.5568 1718.4507,-251.2687"/>
</g>
<!-- n87 -->
<g id="node97" class="node">
<title>n87</title>
<ellipse fill="none" stroke="#000000" cx="1781.8164" cy="-234" rx="27" ry="18"/>
<text text-anchor="middle" x="1781.8164" y="-229.8" font-family="Times,serif" font-size="14.00" fill="#000000">1</text>
</g>
<!-- n88&#45;&#45;n87 -->
<g id="edge82" class="edge">
<title>n88--n87</title>
<path fill="none" stroke="#000000" d="M1754.531,-288.5708C1760.1911,-277.2506 1767.538,-262.5568 1773.182,-251.2687"/>
</g>
<!-- n94 -->
<g id="node99" class="node">
<title>n94</title>
<ellipse fill="none" stroke="#000000" cx="1643.8164" cy="-522" rx="29.0529" ry="18"/>
<text text-anchor="middle" x="1643.8164" y="-517.8" font-family="Times,serif" font-size="14.00" fill="#000000">print</text>
</g>
<!-- n96&#45;&#45;n94 -->
<g id="edge92" class="edge">
<title>n96--n94</title>
<path fill="none" stroke="#000000" d="M1543.069,-581.9488C1565.1359,-568.8182 1600.2763,-547.9081 1622.6836,-534.5749"/>
</g>
<!-- n93 -->
<g id="node100" class="node">
<title>n93</title>
<ellipse fill="none" stroke="#000000" cx="1643.8164" cy="-450" rx="27" ry="18"/>
<text text-anchor="middle" x="1643.8164" y="-445.8" font-family="Times,serif" font-size="14.00" fill="#000000">%d</text>
</g>
<!-- n94&#45;&#45;n93 -->
<g id="edge90" class="edge">
<title>n94--n93</title>
<path fill="none" stroke="#000000" d="M1643.8164,-503.8314C1643.8164,-493 1643.8164,-479.2876 1643.8164,-468.4133"/>
</g>
<!-- n95 -->
<g id="node101" class="node">
<title>n95</title>
<ellipse fill="none" stroke="#000000" cx="1715.8164" cy="-450" rx="27" ry="18"/>
<text text-anchor="middle" x="1715.8164" y="-445.8" font-family="Times,serif" font-size="14.00" fill="#000000">d</text>
</g>
<!-- n94&#45;&#45;n95 -->
<g id="edge91" class="edge">
<title>n94--n95</title>
<path fill="none" stroke="#000000" d="M1659.4393,-506.3771C1671.6815,-494.1348 1688.6115,-477.2049 1700.7173,-465.099"/>
</g>
</g>
</svg>